<?xml version="1.0" encoding="UTF-8"?>
<!DOCTYPE svg PUBLIC "-//W3C//DTD SVG 1.1//EN" "http://www.w3.org/Graphics/SVG/1.1/DTD/svg11.dtd">
<!-- Creator: CorelDRAW -->
<svg xmlns="http://www.w3.org/2000/svg" xml:space="preserve" width="112.036mm" height="54.3069mm" version="1.1" style="shape-rendering:geometricPrecision; text-rendering:geometricPrecision; image-rendering:optimizeQuality; fill-rule:evenodd; clip-rule:evenodd"
viewBox="0 0 9314.56 4515.04"
 xmlns:xlink="http://www.w3.org/1999/xlink">
 <defs>
  <style type="text/css">
   <![CDATA[
    .fil2 {fill:#02074A}
    .fil0 {fill:white}
    .fil4 {fill:white;fill-rule:nonzero}
    .fil1 {fill:url(#id0)}
    .fil3 {fill:url(#id1);fill-rule:nonzero}
   ]]>
  </style>
  <linearGradient id="id0" gradientUnits="userSpaceOnUse" x1="1848.75" y1="2103.6" x2="7100.6" y2="1494.93">
   <stop offset="0" style="stop-opacity:1; stop-color:#B244D7"/>
   <stop offset="1" style="stop-opacity:1; stop-color:#5AA4CD"/>
  </linearGradient>
  <linearGradient id="id1" gradientUnits="userSpaceOnUse" x1="4475.41" y1="2141.99" x2="4475.44" y2="752.73">
   <stop offset="0" style="stop-opacity:1; stop-color:#E6E6E6"/>
   <stop offset="0.2" style="stop-opacity:1; stop-color:white"/>
   <stop offset="0.411765" style="stop-opacity:1; stop-color:#CCCCCC"/>
   <stop offset="0.568627" style="stop-opacity:1; stop-color:white"/>
   <stop offset="1" style="stop-opacity:1; stop-color:white"/>
  </linearGradient>
 </defs>
 <g id="Capa_x0020_1">
  <metadata id="CorelCorpID_0Corel-Layer"/>
  <path class="fil0" d="M9190.34 2791.54l70.41 303.49 -455.42 1404.44 -1259.3 0 -35.95 -110.89c-45.67,30.01 -94.55,54.86 -145.78,74.48 -93.28,35.73 -191.99,52 -291.73,52 -73.5,0 -146.4,-8.97 -217.04,-27.98l0 12.4 -1345.64 0c-218.86,41.75 -590.61,1.5 -735.7,-183.71l-907.97 -1159.06 -1561.12 0 -61.68 -265.84 -335.69 397.7 -396.76 -470.26 0 338.4 -1440.22 0 -70.74 -304.9 0 -2851.8 1203.83 0 633.26 750.81 633.23 -750.81 2221.88 0 147.46 167.09 -38.77 -167.09 2412.23 0 22.48 96.87 85.69 -96.87 1922.51 0 70.74 304.89 -1161.39 1313.64 1036.84 1171.62 0.33 1.4z"/>
  <path class="fil0" d="M7439.34 4083.68c-45.66,30.01 -94.55,54.86 -145.78,74.48 -93.28,35.73 -191.99,51.99 -291.73,51.99 -73.5,0 -146.4,-8.97 -217.04,-27.98l0 12.4 -1345.64 0c-218.86,41.75 -590.61,1.5 -735.7,-183.71l-907.97 -1159.07 -1561.12 0 0 -338.9 -397.36 470.77 -396.77 -470.26 0 338.39 -1440.22 0 0 -2851.8 1203.83 0 633.26 750.81 633.23 -750.81 2221.88 0 298.86 338.65 54.51 -61.6 -244.68 -277.05 2412.23 0 -245.35 277.5 53.97 61.15 299.56 -338.65 1922.51 0 -1260.88 1426.16 1207.07 1363.99 -455.42 1404.44 -1259.3 0 -35.95 -110.9z"/>
  <path class="fil1" d="M9133.71 2801.86l-435.43 1342.78 -1186.68 0 -45.98 -141.81c-57.06,46.04 -120.99,82.31 -189.91,108.7 -87.65,33.56 -180.19,48.69 -273.88,48.69 -91.26,0 -181.34,-14.59 -266.97,-46.31l0 30.72 -1300.52 0c-204.46,40.6 -560.46,2.81 -691.58,-164.57l-922.96 -1178.21 -1535.49 0 0 -425.54 -447.29 529.92 -446.7 -529.45 0 425.07 -1340.37 0 0 -2751.94 1130.7 0 656.44 778.33 656.44 -778.33 2176.16 0 321.35 364.14 121.17 -136.98 -200.6 -227.16 2190.72 0 -201.17 227.55 120.54 136.59 322.1 -364.14 1789.21 0 -1216.75 1376.24 1217.44 1375.7z"/>
  <polygon class="fil2" points="5348.65,277.2 5304.41,227.1 6709.23,227.1 6664.79,277.38 7021.55,681.64 7423.63,227.1 8739.9,227.1 7679.74,1426.22 8740.35,2624.69 7423.76,2624.69 7021.55,2170.63 6664.95,2574.15 6709.68,2624.69 5303.97,2624.69 5348.49,2574.34 4990.89,2170.63 4589.62,2624.69 2461.47,2624.69 2461.47,1891.76 1837.03,2631.54 1213.14,1892.06 1213.14,2624.69 227.1,2624.69 227.1,227.1 1098.3,227.1 1837.09,1103.06 2575.87,227.1 3447.07,227.1 4589.74,227.1 4990.89,681.64 "/>
  <path class="fil3" d="M896.46 1025.67l0 0 0 1282.35 -352.68 0 0 -1794.11 382.13 0 911.16 1080.34 911.15 -1080.34 382.13 0 0 1794.11 -352.25 0 0 -1282.35 -941.03 1114.85 -940.61 -1114.85zm2480.52 -481.88l0 0 352.68 0 0 1764.23 -352.68 0 0 -1764.23zm2158.56 0l0 0 470.94 0 -780.27 882.53 780.27 881.69 -470.94 0 -545 -615.29 -543.75 615.29 -470.93 0 779.42 -881.69 -779.42 -882.53 470.93 0 543.75 616.13 545 -616.13zm2030.63 0l0 0 470.94 0 -780.27 882.53 780.27 881.69 -470.94 0 -545 -615.29 -543.75 615.29 -470.93 0 779.42 -881.69 -779.42 -882.53 470.93 0 543.75 616.13 545 -616.13z"/>
  <path class="fil2" d="M7284.27 2991.41l-16.22 -50.03 527.15 0 55.84 177.2 58.77 -177.2 409.83 0 55.34 176.47 57.37 -176.47 509.47 0 -344.96 1063.77 -443.82 0 -47.74 -151.74 -49.79 151.74 -442.49 0 -93 -286.79c-28.2,55.81 -65.36,105.84 -111.15,148.99 -53.08,50.02 -115,87.85 -183.05,113.92 -71.68,27.45 -147.39,39.47 -223.99,39.47 -76.33,0 -151.63,-12.16 -223.1,-39.34 -68.17,-25.92 -130.16,-63.67 -183.37,-113.55l0 137.31 -504.98 0 0 -303.87 -15.95 0 0 303.87 -504.99 0 0 -59.77c-17.06,10.45 -34.92,19.83 -53.38,28.18 -78.15,35.38 -165.52,47.16 -250.68,47.16 -74.83,0 -149.11,-9.32 -221.37,-28.86 -65.51,-17.72 -130.65,-43.16 -187.01,-81.47l-98.36 -66.89 131.56 -295.49c-13.83,-15.67 -26.25,-32.66 -37.21,-50.84 -32.25,-53.51 -44.91,-114.47 -44.91,-176.41 0,-74.62 21.03,-144.82 62.84,-206.63 43.32,-64.04 104.76,-109.9 174.75,-141.35 78.03,-35.05 164.82,-47.01 249.77,-47.01 61.69,0 123.05,6.97 183.13,20.98 30.94,7.21 61.37,16.41 90.89,27.88l0 -33.27 504.99 0 0 292.75 15.95 0 0 -292.75 504.98 0 0 137.31c53.22,-49.88 115.21,-87.63 183.37,-113.55 71.47,-27.18 146.77,-39.35 223.1,-39.35 76.6,0 152.3,12.02 223.99,39.47 20.05,7.68 39.56,16.4 58.46,26.16z"/>
  <path class="fil4" d="M5265.33 3878.43c-63.82,0 -125.22,-7.97 -184.21,-23.93 -59,-15.95 -107.04,-36.55 -144.15,-61.77l72.36 -162.51c34.88,22.26 75.13,40.63 120.77,55.1 45.64,14.47 91.09,21.71 136.35,21.71 30.42,0 54.91,-2.79 73.46,-8.35 18.55,-5.57 32.09,-12.99 40.63,-22.26 8.53,-9.28 12.8,-20.22 12.8,-32.83 0,-17.81 -8.16,-31.91 -24.48,-42.3 -16.33,-10.38 -37.47,-18.92 -63.44,-25.6 -25.97,-6.68 -54.73,-13.36 -86.27,-20.04 -31.53,-6.68 -63.07,-15.21 -94.61,-25.6 -31.53,-10.39 -60.29,-23.94 -86.26,-40.63 -25.97,-16.69 -47.12,-38.58 -63.45,-65.67 -16.32,-27.08 -24.48,-61.4 -24.48,-102.96 0,-46.75 12.8,-89.04 38.4,-126.89 25.6,-37.85 64,-68.27 115.2,-91.27 51.21,-23 115.02,-34.5 191.45,-34.5 51.2,0 101.47,5.74 150.82,17.25 49.34,11.5 93.31,28.38 131.89,50.64l-67.89 163.63c-37.11,-20.04 -73.84,-35.07 -110.19,-45.08 -36.37,-10.02 -71.61,-15.03 -105.75,-15.03 -30.42,0 -54.91,3.16 -73.46,9.46 -18.55,6.31 -31.91,14.66 -40.07,25.04 -8.16,10.39 -12.24,22.26 -12.24,35.63 0,17.06 7.97,30.6 23.93,40.62 15.95,10.02 37.11,18.18 63.44,24.49 26.35,6.3 55.28,12.8 86.82,19.48 31.53,6.68 63.07,15.02 94.61,25.04 31.53,10.02 60.28,23.37 86.26,40.06 25.97,16.7 46.94,38.59 62.89,65.67 15.95,27.09 23.94,61.04 23.94,101.85 0,45.27 -12.8,87.01 -38.4,125.22 -25.6,38.21 -63.82,68.82 -114.65,91.83 -50.82,23 -114.83,34.5 -192,34.5zm967.25 -794.73l220.39 0 0 779.15 -220.39 0 0 -779.15zm-300.52 779.15l-220.39 0 0 -779.15 220.39 0 0 779.15zm316.11 -303.87l-331.69 0 0 -182.55 331.69 0 0 182.55zm753.54 319.45c-62.33,0 -119.84,-10.02 -172.52,-30.05 -52.69,-20.04 -98.51,-48.42 -137.46,-85.15 -38.96,-36.73 -69.2,-79.59 -90.72,-128.56 -21.52,-48.98 -32.27,-102.78 -32.27,-161.4 0,-58.62 10.76,-112.42 32.27,-161.4 21.52,-48.97 51.76,-91.83 90.72,-128.56 38.95,-36.73 84.78,-65.11 137.46,-85.15 52.69,-20.03 110.19,-30.05 172.52,-30.05 63.08,0 120.77,10.02 173.09,30.05 52.31,20.04 97.76,48.42 136.35,85.15 38.58,36.73 68.82,79.59 90.71,128.56 21.89,48.98 32.84,102.78 32.84,161.4 0,58.62 -10.95,112.6 -32.84,161.96 -21.89,49.34 -52.13,92.19 -90.71,128.56 -38.58,36.36 -84.04,64.56 -136.35,84.59 -52.32,20.03 -110.01,30.05 -173.09,30.05zm0 -182.54c29.68,0 57.32,-5.2 82.92,-15.58 25.61,-10.39 47.86,-25.42 66.79,-45.08 18.92,-19.67 33.76,-43.22 44.52,-70.69 10.76,-27.45 16.15,-57.88 16.15,-91.27 0,-34.14 -5.39,-64.74 -16.15,-91.83 -10.76,-27.09 -25.6,-50.46 -44.52,-70.13 -18.92,-19.66 -41.18,-34.69 -66.79,-45.08 -25.6,-10.38 -53.24,-15.58 -82.92,-15.58 -29.68,0 -57.32,5.2 -82.92,15.58 -25.6,10.39 -47.86,25.42 -66.79,45.08 -18.92,19.67 -33.76,43.04 -44.52,70.13 -10.76,27.09 -16.14,57.69 -16.14,91.83 0,33.39 5.38,63.82 16.14,91.27 10.76,27.46 25.6,51.01 44.52,70.69 18.92,19.66 41.19,34.69 66.79,45.08 25.6,10.38 53.24,15.58 82.92,15.58zm714.59 166.96l-252.67 -779.15 227.07 0 212.6 674.52 -114.65 0 223.73 -674.52 202.58 0 211.48 674.52 -110.19 0 219.28 -674.52 210.37 0 -252.67 779.15 -235.97 0 -180.32 -573.23 63.44 0 -188.11 573.23 -235.97 0z"/>
 </g>
</svg>
